<mxfile host="app.diagrams.net" agent="Mozilla/5.0 (Windows NT 10.0; Win64; x64) AppleWebKit/537.36 (KHTML, like Gecko) Chrome/132.0.0.0 Safari/537.36" version="26.0.14">
  <diagram name="Página-1" id="5VSw2YmOjm2rxLU-eckG">
    <mxGraphModel dx="2049" dy="1066" grid="1" gridSize="10" guides="1" tooltips="1" connect="1" arrows="1" fold="1" page="1" pageScale="1" pageWidth="827" pageHeight="1169" math="0" shadow="0">
      <root>
        <mxCell id="0" />
        <mxCell id="1" parent="0" />
        <mxCell id="KtzBRnWua5iHoCojFaM6-3" style="edgeStyle=orthogonalEdgeStyle;rounded=0;orthogonalLoop=1;jettySize=auto;html=1;entryX=0.5;entryY=0;entryDx=0;entryDy=0;" edge="1" parent="1" source="KtzBRnWua5iHoCojFaM6-1" target="KtzBRnWua5iHoCojFaM6-2">
          <mxGeometry relative="1" as="geometry" />
        </mxCell>
        <mxCell id="KtzBRnWua5iHoCojFaM6-1" value="Início" style="rounded=1;whiteSpace=wrap;html=1;fillColor=#dae8fc;strokeColor=#6c8ebf;" vertex="1" parent="1">
          <mxGeometry x="269" y="170" width="120" height="60" as="geometry" />
        </mxCell>
        <mxCell id="KtzBRnWua5iHoCojFaM6-5" value="" style="edgeStyle=orthogonalEdgeStyle;rounded=0;orthogonalLoop=1;jettySize=auto;html=1;" edge="1" parent="1" source="KtzBRnWua5iHoCojFaM6-2" target="KtzBRnWua5iHoCojFaM6-4">
          <mxGeometry relative="1" as="geometry" />
        </mxCell>
        <mxCell id="KtzBRnWua5iHoCojFaM6-2" value="i = 1" style="rounded=0;whiteSpace=wrap;html=1;fillColor=#dae8fc;strokeColor=#6c8ebf;" vertex="1" parent="1">
          <mxGeometry x="269" y="270" width="120" height="60" as="geometry" />
        </mxCell>
        <mxCell id="KtzBRnWua5iHoCojFaM6-7" value="" style="edgeStyle=orthogonalEdgeStyle;rounded=0;orthogonalLoop=1;jettySize=auto;html=1;" edge="1" parent="1" source="KtzBRnWua5iHoCojFaM6-4" target="KtzBRnWua5iHoCojFaM6-6">
          <mxGeometry relative="1" as="geometry" />
        </mxCell>
        <mxCell id="KtzBRnWua5iHoCojFaM6-8" value="Sim" style="edgeLabel;html=1;align=center;verticalAlign=middle;resizable=0;points=[];labelBackgroundColor=none;" vertex="1" connectable="0" parent="KtzBRnWua5iHoCojFaM6-7">
          <mxGeometry x="-0.2" y="-1" relative="1" as="geometry">
            <mxPoint y="-9" as="offset" />
          </mxGeometry>
        </mxCell>
        <mxCell id="KtzBRnWua5iHoCojFaM6-20" value="" style="edgeStyle=orthogonalEdgeStyle;rounded=0;orthogonalLoop=1;jettySize=auto;html=1;" edge="1" parent="1" source="KtzBRnWua5iHoCojFaM6-4" target="KtzBRnWua5iHoCojFaM6-19">
          <mxGeometry relative="1" as="geometry" />
        </mxCell>
        <mxCell id="KtzBRnWua5iHoCojFaM6-21" value="Não" style="edgeLabel;html=1;align=center;verticalAlign=middle;resizable=0;points=[];labelBackgroundColor=none;" vertex="1" connectable="0" parent="KtzBRnWua5iHoCojFaM6-20">
          <mxGeometry x="-0.0909" y="-1" relative="1" as="geometry">
            <mxPoint y="-11" as="offset" />
          </mxGeometry>
        </mxCell>
        <mxCell id="KtzBRnWua5iHoCojFaM6-4" value="i &amp;lt;= 3" style="rhombus;whiteSpace=wrap;html=1;rounded=0;fillColor=#dae8fc;strokeColor=#6c8ebf;" vertex="1" parent="1">
          <mxGeometry x="289" y="370" width="80" height="80" as="geometry" />
        </mxCell>
        <mxCell id="KtzBRnWua5iHoCojFaM6-10" value="" style="edgeStyle=orthogonalEdgeStyle;rounded=0;orthogonalLoop=1;jettySize=auto;html=1;" edge="1" parent="1" source="KtzBRnWua5iHoCojFaM6-6" target="KtzBRnWua5iHoCojFaM6-9">
          <mxGeometry relative="1" as="geometry" />
        </mxCell>
        <mxCell id="KtzBRnWua5iHoCojFaM6-6" value="j = 1" style="whiteSpace=wrap;html=1;rounded=0;fillColor=#dae8fc;strokeColor=#6c8ebf;" vertex="1" parent="1">
          <mxGeometry x="119" y="380" width="120" height="60" as="geometry" />
        </mxCell>
        <mxCell id="KtzBRnWua5iHoCojFaM6-12" value="" style="edgeStyle=orthogonalEdgeStyle;rounded=0;orthogonalLoop=1;jettySize=auto;html=1;" edge="1" parent="1" source="KtzBRnWua5iHoCojFaM6-9" target="KtzBRnWua5iHoCojFaM6-11">
          <mxGeometry relative="1" as="geometry" />
        </mxCell>
        <mxCell id="KtzBRnWua5iHoCojFaM6-13" value="Sim" style="edgeLabel;html=1;align=center;verticalAlign=middle;resizable=0;points=[];labelBackgroundColor=none;" vertex="1" connectable="0" parent="KtzBRnWua5iHoCojFaM6-12">
          <mxGeometry x="-0.45" y="-1" relative="1" as="geometry">
            <mxPoint x="11" as="offset" />
          </mxGeometry>
        </mxCell>
        <mxCell id="KtzBRnWua5iHoCojFaM6-9" value="j &amp;lt;= 2" style="rhombus;whiteSpace=wrap;html=1;rounded=0;fillColor=#dae8fc;strokeColor=#6c8ebf;" vertex="1" parent="1">
          <mxGeometry x="139" y="480" width="80" height="80" as="geometry" />
        </mxCell>
        <mxCell id="KtzBRnWua5iHoCojFaM6-11" value="m[i,j]" style="shape=parallelogram;perimeter=parallelogramPerimeter;whiteSpace=wrap;html=1;fixedSize=1;rounded=0;fillColor=#dae8fc;strokeColor=#6c8ebf;" vertex="1" parent="1">
          <mxGeometry x="119" y="600" width="120" height="60" as="geometry" />
        </mxCell>
        <mxCell id="KtzBRnWua5iHoCojFaM6-14" value="" style="endArrow=classic;html=1;rounded=0;exitX=0;exitY=0.5;exitDx=0;exitDy=0;entryX=0;entryY=0.5;entryDx=0;entryDy=0;" edge="1" parent="1" source="KtzBRnWua5iHoCojFaM6-11" target="KtzBRnWua5iHoCojFaM6-9">
          <mxGeometry width="50" height="50" relative="1" as="geometry">
            <mxPoint x="129" y="520" as="sourcePoint" />
            <mxPoint x="179" y="470" as="targetPoint" />
            <Array as="points">
              <mxPoint x="89" y="630" />
              <mxPoint x="89" y="580" />
              <mxPoint x="89" y="520" />
            </Array>
          </mxGeometry>
        </mxCell>
        <mxCell id="KtzBRnWua5iHoCojFaM6-15" value="j = j + 1" style="edgeLabel;html=1;align=center;verticalAlign=middle;resizable=0;points=[];labelBackgroundColor=none;" vertex="1" connectable="0" parent="KtzBRnWua5iHoCojFaM6-14">
          <mxGeometry x="-0.04" y="-2" relative="1" as="geometry">
            <mxPoint x="-22" y="6" as="offset" />
          </mxGeometry>
        </mxCell>
        <mxCell id="KtzBRnWua5iHoCojFaM6-16" value="" style="endArrow=classic;html=1;rounded=0;exitX=1;exitY=0.5;exitDx=0;exitDy=0;entryX=0.5;entryY=1;entryDx=0;entryDy=0;" edge="1" parent="1" source="KtzBRnWua5iHoCojFaM6-9" target="KtzBRnWua5iHoCojFaM6-4">
          <mxGeometry width="50" height="50" relative="1" as="geometry">
            <mxPoint x="319" y="520" as="sourcePoint" />
            <mxPoint x="369" y="470" as="targetPoint" />
            <Array as="points">
              <mxPoint x="329" y="520" />
            </Array>
          </mxGeometry>
        </mxCell>
        <mxCell id="KtzBRnWua5iHoCojFaM6-17" value="Não" style="edgeLabel;html=1;align=center;verticalAlign=middle;resizable=0;points=[];labelBackgroundColor=none;" vertex="1" connectable="0" parent="KtzBRnWua5iHoCojFaM6-16">
          <mxGeometry x="-0.4556" y="-1" relative="1" as="geometry">
            <mxPoint x="1" y="-11" as="offset" />
          </mxGeometry>
        </mxCell>
        <mxCell id="KtzBRnWua5iHoCojFaM6-18" value="i = i + 1" style="edgeLabel;html=1;align=center;verticalAlign=middle;resizable=0;points=[];labelBackgroundColor=none;" vertex="1" connectable="0" parent="KtzBRnWua5iHoCojFaM6-16">
          <mxGeometry x="-0.3333" y="-3" relative="1" as="geometry">
            <mxPoint x="-10" y="7" as="offset" />
          </mxGeometry>
        </mxCell>
        <mxCell id="KtzBRnWua5iHoCojFaM6-23" value="" style="edgeStyle=orthogonalEdgeStyle;rounded=0;orthogonalLoop=1;jettySize=auto;html=1;" edge="1" parent="1" source="KtzBRnWua5iHoCojFaM6-19" target="KtzBRnWua5iHoCojFaM6-22">
          <mxGeometry relative="1" as="geometry" />
        </mxCell>
        <mxCell id="KtzBRnWua5iHoCojFaM6-19" value="maior = m [1,1]" style="whiteSpace=wrap;html=1;rounded=0;fillColor=#dae8fc;strokeColor=#6c8ebf;" vertex="1" parent="1">
          <mxGeometry x="479" y="380" width="120" height="60" as="geometry" />
        </mxCell>
        <mxCell id="KtzBRnWua5iHoCojFaM6-25" value="" style="edgeStyle=orthogonalEdgeStyle;rounded=0;orthogonalLoop=1;jettySize=auto;html=1;" edge="1" parent="1" source="KtzBRnWua5iHoCojFaM6-22" target="KtzBRnWua5iHoCojFaM6-24">
          <mxGeometry relative="1" as="geometry" />
        </mxCell>
        <mxCell id="KtzBRnWua5iHoCojFaM6-22" value="i = 1" style="whiteSpace=wrap;html=1;rounded=0;fillColor=#dae8fc;strokeColor=#6c8ebf;" vertex="1" parent="1">
          <mxGeometry x="479" y="480" width="120" height="60" as="geometry" />
        </mxCell>
        <mxCell id="KtzBRnWua5iHoCojFaM6-27" value="" style="edgeStyle=orthogonalEdgeStyle;rounded=0;orthogonalLoop=1;jettySize=auto;html=1;" edge="1" parent="1" source="KtzBRnWua5iHoCojFaM6-24" target="KtzBRnWua5iHoCojFaM6-26">
          <mxGeometry relative="1" as="geometry" />
        </mxCell>
        <mxCell id="KtzBRnWua5iHoCojFaM6-28" value="Sim" style="edgeLabel;html=1;align=center;verticalAlign=middle;resizable=0;points=[];labelBackgroundColor=none;" vertex="1" connectable="0" parent="KtzBRnWua5iHoCojFaM6-27">
          <mxGeometry x="-0.12" relative="1" as="geometry">
            <mxPoint x="2" y="-10" as="offset" />
          </mxGeometry>
        </mxCell>
        <mxCell id="KtzBRnWua5iHoCojFaM6-30" value="" style="edgeStyle=orthogonalEdgeStyle;rounded=0;orthogonalLoop=1;jettySize=auto;html=1;" edge="1" parent="1" source="KtzBRnWua5iHoCojFaM6-24" target="KtzBRnWua5iHoCojFaM6-29">
          <mxGeometry relative="1" as="geometry" />
        </mxCell>
        <mxCell id="KtzBRnWua5iHoCojFaM6-34" value="Não" style="edgeLabel;html=1;align=center;verticalAlign=middle;resizable=0;points=[];labelBackgroundColor=none;" vertex="1" connectable="0" parent="KtzBRnWua5iHoCojFaM6-30">
          <mxGeometry x="-0.32" y="-2" relative="1" as="geometry">
            <mxPoint x="3" y="-12" as="offset" />
          </mxGeometry>
        </mxCell>
        <mxCell id="KtzBRnWua5iHoCojFaM6-24" value="i &amp;lt;= 3" style="rhombus;whiteSpace=wrap;html=1;rounded=0;fillColor=#dae8fc;strokeColor=#6c8ebf;" vertex="1" parent="1">
          <mxGeometry x="499" y="580" width="80" height="80" as="geometry" />
        </mxCell>
        <mxCell id="KtzBRnWua5iHoCojFaM6-26" value="j = 1" style="rounded=0;whiteSpace=wrap;html=1;fillColor=#dae8fc;strokeColor=#6c8ebf;" vertex="1" parent="1">
          <mxGeometry x="329" y="590" width="120" height="60" as="geometry" />
        </mxCell>
        <mxCell id="KtzBRnWua5iHoCojFaM6-33" style="edgeStyle=orthogonalEdgeStyle;rounded=0;orthogonalLoop=1;jettySize=auto;html=1;entryX=0.5;entryY=0;entryDx=0;entryDy=0;" edge="1" parent="1" source="KtzBRnWua5iHoCojFaM6-29" target="KtzBRnWua5iHoCojFaM6-31">
          <mxGeometry relative="1" as="geometry" />
        </mxCell>
        <mxCell id="KtzBRnWua5iHoCojFaM6-29" value="maior" style="shape=document;whiteSpace=wrap;html=1;boundedLbl=1;rounded=0;fillColor=#dae8fc;strokeColor=#6c8ebf;" vertex="1" parent="1">
          <mxGeometry x="629" y="595" width="100" height="50" as="geometry" />
        </mxCell>
        <mxCell id="KtzBRnWua5iHoCojFaM6-31" value="Fim" style="rounded=1;whiteSpace=wrap;html=1;fillColor=#dae8fc;strokeColor=#6c8ebf;" vertex="1" parent="1">
          <mxGeometry x="619" y="680" width="120" height="60" as="geometry" />
        </mxCell>
        <mxCell id="KtzBRnWua5iHoCojFaM6-41" value="" style="edgeStyle=orthogonalEdgeStyle;rounded=0;orthogonalLoop=1;jettySize=auto;html=1;" edge="1" parent="1" source="KtzBRnWua5iHoCojFaM6-35" target="KtzBRnWua5iHoCojFaM6-40">
          <mxGeometry relative="1" as="geometry" />
        </mxCell>
        <mxCell id="KtzBRnWua5iHoCojFaM6-45" value="Sim" style="edgeLabel;html=1;align=center;verticalAlign=middle;resizable=0;points=[];labelBackgroundColor=none;" vertex="1" connectable="0" parent="KtzBRnWua5iHoCojFaM6-41">
          <mxGeometry x="0.05" y="2" relative="1" as="geometry">
            <mxPoint x="8" as="offset" />
          </mxGeometry>
        </mxCell>
        <mxCell id="KtzBRnWua5iHoCojFaM6-35" value="j &amp;lt;= 2" style="rhombus;whiteSpace=wrap;html=1;rounded=0;fillColor=#dae8fc;strokeColor=#6c8ebf;" vertex="1" parent="1">
          <mxGeometry x="349" y="700" width="80" height="80" as="geometry" />
        </mxCell>
        <mxCell id="KtzBRnWua5iHoCojFaM6-37" value="" style="endArrow=classic;html=1;rounded=0;exitX=0.5;exitY=1;exitDx=0;exitDy=0;entryX=1;entryY=0.5;entryDx=0;entryDy=0;" edge="1" parent="1" source="KtzBRnWua5iHoCojFaM6-24" target="KtzBRnWua5iHoCojFaM6-35">
          <mxGeometry width="50" height="50" relative="1" as="geometry">
            <mxPoint x="379" y="720" as="sourcePoint" />
            <mxPoint x="429" y="670" as="targetPoint" />
            <Array as="points">
              <mxPoint x="539" y="740" />
            </Array>
          </mxGeometry>
        </mxCell>
        <mxCell id="KtzBRnWua5iHoCojFaM6-38" value="Não" style="edgeLabel;html=1;align=center;verticalAlign=middle;resizable=0;points=[];labelBackgroundColor=none;" vertex="1" connectable="0" parent="KtzBRnWua5iHoCojFaM6-37">
          <mxGeometry x="0.4105" y="2" relative="1" as="geometry">
            <mxPoint y="-12" as="offset" />
          </mxGeometry>
        </mxCell>
        <mxCell id="KtzBRnWua5iHoCojFaM6-39" value="i = i + 1" style="edgeLabel;html=1;align=center;verticalAlign=middle;resizable=0;points=[];labelBackgroundColor=none;" vertex="1" connectable="0" parent="KtzBRnWua5iHoCojFaM6-37">
          <mxGeometry x="0.4316" relative="1" as="geometry">
            <mxPoint y="10" as="offset" />
          </mxGeometry>
        </mxCell>
        <mxCell id="KtzBRnWua5iHoCojFaM6-43" value="" style="edgeStyle=orthogonalEdgeStyle;rounded=0;orthogonalLoop=1;jettySize=auto;html=1;" edge="1" parent="1" source="KtzBRnWua5iHoCojFaM6-40" target="KtzBRnWua5iHoCojFaM6-42">
          <mxGeometry relative="1" as="geometry" />
        </mxCell>
        <mxCell id="KtzBRnWua5iHoCojFaM6-44" value="Sim" style="edgeLabel;html=1;align=center;verticalAlign=middle;resizable=0;points=[];labelBackgroundColor=none;" vertex="1" connectable="0" parent="KtzBRnWua5iHoCojFaM6-43">
          <mxGeometry x="-0.25" relative="1" as="geometry">
            <mxPoint x="10" as="offset" />
          </mxGeometry>
        </mxCell>
        <mxCell id="KtzBRnWua5iHoCojFaM6-40" value="m[i,j] &amp;gt; maior" style="rhombus;whiteSpace=wrap;html=1;rounded=0;fillColor=#dae8fc;strokeColor=#6c8ebf;" vertex="1" parent="1">
          <mxGeometry x="349" y="820" width="80" height="80" as="geometry" />
        </mxCell>
        <mxCell id="KtzBRnWua5iHoCojFaM6-42" value="maior = m[i,j]" style="whiteSpace=wrap;html=1;rounded=0;fillColor=#dae8fc;strokeColor=#6c8ebf;" vertex="1" parent="1">
          <mxGeometry x="329" y="940" width="120" height="60" as="geometry" />
        </mxCell>
        <mxCell id="KtzBRnWua5iHoCojFaM6-46" value="" style="endArrow=classic;html=1;rounded=0;exitX=0;exitY=0.5;exitDx=0;exitDy=0;entryX=0;entryY=0;entryDx=0;entryDy=0;" edge="1" parent="1" source="KtzBRnWua5iHoCojFaM6-42" target="KtzBRnWua5iHoCojFaM6-35">
          <mxGeometry width="50" height="50" relative="1" as="geometry">
            <mxPoint x="379" y="820" as="sourcePoint" />
            <mxPoint x="429" y="770" as="targetPoint" />
            <Array as="points">
              <mxPoint x="289" y="970" />
              <mxPoint x="289" y="720" />
            </Array>
          </mxGeometry>
        </mxCell>
        <mxCell id="KtzBRnWua5iHoCojFaM6-47" value="j = j + 1" style="edgeLabel;html=1;align=center;verticalAlign=middle;resizable=0;points=[];labelBackgroundColor=none;" vertex="1" connectable="0" parent="KtzBRnWua5iHoCojFaM6-46">
          <mxGeometry x="-0.5838" y="-3" relative="1" as="geometry">
            <mxPoint x="17" y="-13" as="offset" />
          </mxGeometry>
        </mxCell>
        <mxCell id="KtzBRnWua5iHoCojFaM6-48" value="" style="endArrow=classic;html=1;rounded=0;exitX=0;exitY=0.5;exitDx=0;exitDy=0;entryX=0;entryY=0.5;entryDx=0;entryDy=0;" edge="1" parent="1" source="KtzBRnWua5iHoCojFaM6-40" target="KtzBRnWua5iHoCojFaM6-35">
          <mxGeometry width="50" height="50" relative="1" as="geometry">
            <mxPoint x="379" y="820" as="sourcePoint" />
            <mxPoint x="429" y="770" as="targetPoint" />
            <Array as="points">
              <mxPoint x="319" y="860" />
              <mxPoint x="319" y="740" />
            </Array>
          </mxGeometry>
        </mxCell>
        <mxCell id="KtzBRnWua5iHoCojFaM6-49" value="j = j + 1" style="edgeLabel;html=1;align=center;verticalAlign=middle;resizable=0;points=[];labelBackgroundColor=none;" vertex="1" connectable="0" parent="KtzBRnWua5iHoCojFaM6-48">
          <mxGeometry x="0.0111" y="-2" relative="1" as="geometry">
            <mxPoint x="18" as="offset" />
          </mxGeometry>
        </mxCell>
        <mxCell id="KtzBRnWua5iHoCojFaM6-50" value="Não" style="edgeLabel;html=1;align=center;verticalAlign=middle;resizable=0;points=[];labelBackgroundColor=none;" vertex="1" connectable="0" parent="KtzBRnWua5iHoCojFaM6-48">
          <mxGeometry x="-0.2222" y="-1" relative="1" as="geometry">
            <mxPoint x="9" y="30" as="offset" />
          </mxGeometry>
        </mxCell>
      </root>
    </mxGraphModel>
  </diagram>
</mxfile>
